# xmcd
#
# Track frame offsets:
# 150
# 18328
# 35534
# 51896
# 68479
# 87405
# 105318
# 120195
# 133783
# 147711
# 161534
# 179279
# 190870
# 206101
#
# Disc length: 3176 seconds
#
#
# Revision: 5
# Processed by: cddbd v1.5.1PL0 Copyright (c) Steve Scherf et al.
# Submitted via: FreeRIP 2.942 
#
DISCID=bf0c660e
DTITLE=Carpenters - Yesterday Once More [CD 1/2)
DYEAR=1998
DGENRE=Pop
TTITLE0=Yesterday Once More
TTITLE1=Superstar
TTITLE2=Rainy Days And Mondays
TTITLE3=(Want You) Back In My Life Again
TTITLE4=Ticket To Ride
TTITLE5=Goodbye To Love
TTITLE6=Bless The Beasts And Children
TTITLE7=It's Going To Take Some Time
TTITLE8=There's A Kind Of Hush
TTITLE9=Sweet, Sweet Smile
TTITLE10=I Won't Last A Day Without You
TTITLE11=For All We Know
TTITLE12=Touch Me When We're Dancing
TTITLE13=Calling Occupants Of Inteplanetary Craft
EXTD=Greatest Hits - 1969-1983\nYEAR: 1998  ID3G:  17
EXTT0=
EXTT1=
EXTT2=
EXTT3=
EXTT4=
EXTT5=
EXTT6=a Stanley Kramer Production)
EXTT7=
EXTT8=
EXTT9=
EXTT10=
EXTT11=
EXTT12=
EXTT13=The Recognized Anthem of World Contact Day
PLAYORDER=
